<svg xmlns="http://www.w3.org/2000/svg" xmlns:xlink="http://www.w3.org/1999/xlink" version="1.1" xml:space="preserve" viewBox="76.9 163.48 501.76 224.56">
<desc>Created with Fabric.js 3.6.6</desc>
<defs>
</defs>
<g transform="matrix(1 0 0 1 325.86 275.76)">
<g style="">
		<g transform="matrix(0.77 0 0 0.77 -136.72 0)">
<g style="">
		<g transform="matrix(0.13 0 0 -0.13 0 0)">
<path style="stroke: none; stroke-width: 1; stroke-dasharray: none; stroke-linecap: butt; stroke-dashoffset: 0; stroke-linejoin: miter; stroke-miterlimit: 4; fill: rgb(5,17,122); fill-rule: nonzero; opacity: 1;" transform=" translate(-1125, -1125.45)" d="M 985 2239 c -161 -19 -339 -84 -477 -175 c -94 -61 -261 -228 -322 -322 c -243 -369 -243 -865 0 -1234 c 61 -94 228 -261 322 -322 c 369 -243 865 -243 1234 0 c 94 61 261 228 322 322 c 243 369 243 865 0 1234 c -61 94 -228 261 -322 322 c -220 144 -490 207 -757 175 z m 168 -36 c -13 -2 -23 -10 -23 -18 c 0 -7 10 -16 23 -20 l 22 -8 l -22 -4 c -18 -3 -23 -11 -23 -34 c 0 -16 -4 -29 -10 -29 c -5 0 -10 14 -10 30 c 0 20 -5 30 -15 30 c -8 0 -15 5 -15 10 c 0 6 6 10 14 10 c 7 0 16 9 19 20 c 4 15 13 20 34 19 c 23 -1 24 -2 6 -6 z m 217 -29 c 24 -7 24 -7 4 -15 c -15 -5 -23 -19 -28 -48 c -3 -23 -11 -41 -17 -41 c -10 0 -7 31 7 83 c 4 11 0 17 -10 17 c -9 0 -16 5 -16 11 c 0 6 8 8 18 5 c 9 -2 28 -8 42 -12 z m -316 -20 c 12 -32 6 -55 -19 -66 c -22 -10 -29 -9 -47 10 c -19 18 -20 25 -10 47 c 14 29 66 36 76 9 z m -213 -40 c 10 -13 10 -17 -2 -25 c -8 -5 -19 -9 -26 -9 c -6 0 -15 -5 -19 -12 c -5 -8 3 -9 29 -5 c 42 7 51 -9 10 -19 c -32 -8 -57 6 -61 35 c -7 44 41 68 69 35 z m 627 4 c 7 -7 12 -20 12 -31 c 0 -15 -5 -17 -30 -12 c -34 7 -44 -13 -10 -22 c 11 -3 20 -9 20 -14 c 0 -4 -13 -3 -30 2 c -23 9 -30 17 -30 38 c 0 30 16 51 40 51 c 9 0 21 -5 28 -12 z m -754 -22 c 21 8 21 -5 0 -21 c -24 -17 -1 -59 28 -49 c 14 4 18 2 14 -5 c -13 -21 -52 -12 -64 14 c -6 14 -20 25 -29 26 c -11 0 -13 3 -5 6 c 6 2 12 14 12 25 c 0 16 3 18 14 9 c 7 -6 21 -9 30 -5 z m 862 -20 c 18 -13 17 -14 -16 -13 c -28 2 -36 -2 -38 -19 c -2 -13 5 -24 20 -32 c 22 -10 22 -11 3 -11 c -42 -2 -59 43 -29 73 c 19 20 35 20 60 2 z m 70 -12 c -4 -9 2 -22 15 -33 c 20 -16 20 -17 3 -54 c -10 -20 -21 -37 -26 -37 c -11 0 -9 11 7 40 c 19 34 18 40 -5 40 c -12 0 -25 -10 -32 -25 c -10 -22 -28 -34 -28 -19 c 0 13 56 104 64 104 c 4 0 5 -7 2 -16 z m -990 -56 c 8 -16 14 -31 12 -32 c -49 -29 -60 -30 -75 -11 c -29 39 -35 55 -20 55 c 8 0 19 -11 25 -25 c 6 -14 16 -25 22 -25 c 16 0 24 30 11 43 c -14 14 -15 40 -1 32 c 6 -3 17 -20 26 -37 z m 699 13 c 97 -26 227 -87 309 -145 c 70 -50 180 -161 221 -224 c 16 -24 31 -39 34 -34 c 10 16 92 51 105 46 c 10 -4 36 -45 36 -57 c 0 -12 -58 -3 -73 10 c -19 17 -20 17 -8 -4 c 6 -12 11 -29 11 -37 c 0 -19 -31 -21 -49 -3 c -7 6 4 -22 23 -63 c 50 -105 76 -216 83 -347 l 6 -113 l 27 0 c 15 0 42 -3 59 -6 c 26 -5 31 -11 31 -34 c 0 -41 -25 -58 -58 -39 c -15 8 -27 24 -27 34 c 0 20 -23 37 -37 28 c -5 -2 -8 -17 -8 -32 c 0 -93 -82 -301 -164 -415 c -50 -70 -160 -178 -228 -225 c -72 -49 -204 -108 -293 -133 c -65 -17 -107 -21 -230 -21 c -174 0 -255 17 -393 83 c -106 51 -161 88 -246 169 c -85 82 -144 163 -196 272 c -66 139 -83 220 -83 394 c 0 174 17 255 83 394 c 131 274 373 460 673 517 c 100 19 289 11 392 -15 z m -830 -51 c -14 -15 -13 -18 5 -35 c 17 -15 22 -16 36 -4 c 15 12 17 12 13 0 c -3 -8 -13 -19 -23 -25 c -14 -9 -21 -6 -38 14 c -11 14 -27 24 -36 22 c -10 -3 -13 2 -8 13 c 3 9 6 20 6 23 c 0 4 14 7 30 8 c 28 1 29 0 15 -16 z m 1226 1 l 22 -18 l -22 -37 c -13 -20 -27 -34 -32 -30 c -5 3 0 17 11 31 c 11 14 20 30 20 34 c 0 18 -39 8 -54 -13 c -9 -12 -18 -19 -22 -15 c -7 7 33 67 46 67 c 4 0 18 -8 31 -19 z m -1341 -51 c 0 -5 -7 -10 -16 -10 c -8 0 -12 5 -9 10 c 3 6 10 10 16 10 c 5 0 9 -4 9 -10 z m 1422 -17 c 24 -22 23 -49 -4 -67 c -19 -13 -25 -14 -43 -2 c -27 18 -31 43 -9 67 c 21 23 32 24 56 2 z m -1342 -35 c 9 3 5 -6 -9 -22 c -25 -26 -53 -38 -32 -13 c 15 19 -19 50 -45 41 c -18 -7 -18 -7 0 15 l 19 21 l 26 -24 c 14 -13 33 -21 41 -18 z m 1418 -63 c -26 -24 -36 -40 -31 -52 c 4 -12 -4 -8 -25 11 c -30 28 -38 52 -10 28 c 19 -15 80 41 71 65 c -6 17 -5 17 13 0 c 19 -18 18 -19 -18 -52 z m -1547 22 c -16 -20 24 -56 41 -39 c 20 20 32 13 13 -8 c -23 -25 -37 -25 -60 0 c -12 14 -22 17 -30 10 c -8 -7 -12 -2 -12 20 c 0 22 3 27 12 20 c 9 -7 16 -5 25 5 c 7 9 15 13 18 10 c 3 -2 0 -11 -7 -18 z m -69 -79 c -7 -7 -12 -18 -12 -26 c 0 -12 3 -12 23 0 c 44 29 67 -11 27 -47 c -11 -10 -20 -13 -20 -7 c 0 6 5 14 10 17 c 6 3 10 13 10 21 c 0 12 -4 12 -26 -2 c -18 -13 -28 -14 -36 -6 c -14 14 5 62 24 62 c 9 0 9 -3 0 -12 z m 1682 -4 c 30 -30 13 -74 -29 -74 c -43 0 -58 39 -28 72 c 20 22 37 23 57 2 z m -1703 -91 c 16 -10 29 -21 29 -25 c 0 -12 -13 -9 -39 8 c -17 13 -25 14 -34 4 c -9 -9 -5 -17 18 -35 c 40 -33 27 -41 -20 -13 c -21 12 -33 24 -27 26 c 7 2 12 12 12 21 c 0 35 18 39 61 14 z m -79 -111 c 23 -8 35 -9 45 -1 c 17 14 17 -1 1 -36 c -12 -26 -34 -36 -24 -10 c 7 20 -64 52 -75 33 c -16 -25 -16 -2 -1 32 c 13 29 17 31 19 15 c 2 -13 17 -26 35 -33 z m 1882 26 c -4 -7 -14 -21 -22 -30 c -14 -17 -12 -18 21 -18 c 21 0 37 -4 37 -10 c 0 -17 -117 -12 -135 6 c -20 20 -11 32 10 14 c 14 -12 21 -9 48 18 c 32 32 54 43 41 20 z m 106 -208 c 0 -5 -10 -10 -22 -10 c -22 0 -21 -1 7 -25 c 32 -26 23 -35 -11 -11 c -17 13 -22 12 -46 -12 c -31 -28 -37 -20 -12 16 c 14 21 14 22 -5 22 c -34 0 -24 18 12 23 c 62 7 77 7 77 -3 z m -2000 -10 c 0 -5 -16 -10 -35 -10 c -45 0 -49 -28 -5 -36 c 17 -4 30 -10 30 -15 c 0 -11 -7 -11 -48 -3 c -24 5 -30 11 -30 33 c 0 14 2 29 5 34 c 6 11 83 9 83 -3 z m -35 -96 c 17 -4 20 -12 17 -40 c -4 -29 -8 -35 -26 -32 c -15 2 -22 11 -24 31 c -4 31 -22 27 -22 -6 c 0 -16 -3 -18 -12 -9 c -9 9 -9 18 0 37 c 12 25 28 30 67 19 z m 1983 -6 c 7 -7 12 -20 12 -30 c 0 -10 5 -18 11 -18 c 7 0 9 10 7 25 c -6 27 6 34 16 9 c 11 -28 -12 -54 -48 -54 c -29 0 -34 4 -39 28 c -8 41 16 65 41 40 z m -1968 -133 c 0 -19 -4 -35 -10 -35 c -5 0 -10 7 -10 15 c 0 9 -9 15 -25 15 c -16 0 -25 -6 -25 -15 c 0 -8 -4 -15 -10 -15 c -5 0 -10 9 -10 20 c 0 16 7 20 35 20 c 24 0 35 5 35 15 c 0 8 5 15 10 15 c 6 0 10 -16 10 -35 z m 2017 4 c -2 -40 -24 -55 -63 -43 l -29 8 l 38 4 c 29 2 37 7 37 23 c 0 15 -7 19 -35 19 c -19 0 -35 5 -35 10 c 0 6 20 10 44 10 c 43 0 44 -1 43 -31 z m -2117 -9 c 0 -5 -4 -10 -10 -10 c -5 0 -10 5 -10 10 c 0 6 5 10 10 10 c 6 0 10 -4 10 -10 z m 100 -72 c 0 -7 3 -23 6 -35 c 4 -15 0 -25 -16 -33 c -30 -16 -70 2 -70 30 c 0 14 -7 20 -22 20 c -34 0 -12 13 35 21 c 64 10 67 10 67 -3 z m 15 -98 c 3 -5 -9 -13 -27 -18 c -47 -12 -44 -38 5 -34 c 45 3 50 -13 6 -22 c -45 -9 -56 -8 -57 7 c 0 6 -2 21 -4 32 c -3 17 14 28 69 44 c 1 1 4 -3 8 -9 z m 1969 -6 c 31 -12 16 -22 -24 -17 c -22 3 -40 1 -40 -4 c 0 -15 23 -33 41 -33 c 10 0 21 -5 25 -12 c 5 -8 -5 -9 -37 -4 c -24 4 -44 8 -45 9 c -1 1 1 17 3 35 c 5 27 9 32 33 32 c 16 0 35 -3 44 -6 z m -1930 -153 c -4 -3 -9 -1 -11 5 c -3 9 -15 9 -44 1 c -27 -6 -38 -14 -35 -23 c 3 -8 1 -14 -3 -14 c -14 0 -32 58 -20 65 c 5 4 9 0 9 -8 c 0 -24 72 2 78 28 c 5 17 8 15 19 -14 c 8 -18 11 -36 7 -40 z m 1884 48 c 28 -10 31 -14 26 -37 c -9 -37 -13 -42 -30 -42 c -18 0 -18 16 1 24 c 21 8 7 35 -21 42 c -13 3 -24 10 -24 15 c 0 12 10 11 48 -2 z" stroke-linecap="round"/>
</g>
		<g transform="matrix(0.13 0 0 -0.13 -14.89 -133.96)">
<path style="stroke: none; stroke-width: 1; stroke-dasharray: none; stroke-linecap: butt; stroke-dashoffset: 0; stroke-linejoin: miter; stroke-miterlimit: 4; fill: rgb(5,17,122); fill-rule: nonzero; opacity: 1;" transform=" translate(-1013.32, -2130.17)" d="M 995 2150 c -11 -17 5 -51 23 -48 c 23 4 23 52 0 56 c -9 2 -19 -2 -23 -8 z" stroke-linecap="round"/>
</g>
		<g transform="matrix(0.13 0 0 -0.13 -42.28 -129.94)">
<path style="stroke: none; stroke-width: 1; stroke-dasharray: none; stroke-linecap: butt; stroke-dashoffset: 0; stroke-linejoin: miter; stroke-miterlimit: 4; fill: rgb(0,0,0); fill-rule: nonzero; opacity: 1;" transform=" translate(-807.88, -2100)" d="M 790 2100 c 0 -5 6 -10 14 -10 c 8 0 18 5 21 10 c 3 6 -3 10 -14 10 c -12 0 -21 -4 -21 -10 z" stroke-linecap="round"/>
</g>
		<g transform="matrix(0.13 0 0 -0.13 42.67 -129.94)">
<path style="stroke: none; stroke-width: 1; stroke-dasharray: none; stroke-linecap: butt; stroke-dashoffset: 0; stroke-linejoin: miter; stroke-miterlimit: 4; fill: rgb(0,0,0); fill-rule: nonzero; opacity: 1;" transform=" translate(-1445, -2100)" d="M 1425 2100 c 3 -5 15 -10 26 -10 c 11 0 17 5 14 10 c -3 6 -15 10 -26 10 c -11 0 -17 -4 -14 -10 z" stroke-linecap="round"/>
</g>
		<g transform="matrix(0.14 0 0 -0.14 1.3 -107.07)">
<path style="stroke: none; stroke-width: 1; stroke-dasharray: none; stroke-linecap: butt; stroke-dashoffset: 0; stroke-linejoin: miter; stroke-miterlimit: 4; fill: rgb(0,16,118); fill-rule: nonzero; opacity: 1;" transform=" translate(-1125, -1923.2)" d="M 980 1994 c -60 -11 -200 -58 -200 -67 c 0 -13 40 -77 48 -77 c 4 0 36 10 72 22 c 56 19 87 22 225 22 c 138 0 169 -3 225 -22 c 36 -12 68 -22 72 -22 c 8 0 48 64 48 77 c 0 5 -39 22 -87 38 c -77 24 -107 28 -233 31 c -80 1 -156 0 -170 -2 z" stroke-linecap="round"/>
</g>
		<g transform="matrix(0.13 0 0 -0.13 -89.93 -53.27)">
<path style="stroke: none; stroke-width: 1; stroke-dasharray: none; stroke-linecap: butt; stroke-dashoffset: 0; stroke-linejoin: miter; stroke-miterlimit: 4; fill: rgb(0,16,118); fill-rule: nonzero; opacity: 1;" transform=" translate(-450.5, -1525)" d="M 517 1758 c -76 -75 -135 -155 -179 -243 c -30 -58 -72 -191 -82 -252 l -6 -43 l 49 0 c 51 0 61 8 61 53 c 0 43 58 187 105 263 c 26 42 79 107 117 144 l 69 69 l -23 40 c -13 23 -26 41 -30 41 c -4 0 -40 -33 -81 -72 z" stroke-linecap="round"/>
</g>
		<g transform="matrix(0.13 0 0 -0.13 89.93 -53.27)">
<path style="stroke: none; stroke-width: 1; stroke-dasharray: none; stroke-linecap: butt; stroke-dashoffset: 0; stroke-linejoin: miter; stroke-miterlimit: 4; fill: rgb(0,16,118); fill-rule: nonzero; opacity: 1;" transform=" translate(-1799.5, -1525)" d="M 1622 1789 l -23 -40 l 69 -69 c 38 -37 91 -102 117 -144 c 47 -76 105 -220 105 -263 c 0 -45 10 -53 61 -53 l 49 0 l -6 43 c -18 114 -74 253 -147 362 c -37 56 -180 205 -195 205 c -4 0 -17 -18 -30 -41 z" stroke-linecap="round"/>
</g>
		<g transform="matrix(0.13 0 0 -0.13 118.39 -67.8)">
<path style="stroke: none; stroke-width: 1; stroke-dasharray: none; stroke-linecap: butt; stroke-dashoffset: 0; stroke-linejoin: miter; stroke-miterlimit: 4; fill: rgb(5,17,122); fill-rule: nonzero; opacity: 1;" transform=" translate(-2012.94, -1633.93)" d="M 2002 1636 c 1 -10 8 -17 13 -17 c 15 1 12 24 -3 29 c -9 3 -13 -2 -10 -12 z" stroke-linecap="round"/>
</g>
		<g transform="matrix(0.13 0 0 -0.13 10.01 11.06)">
<path style="stroke: none; stroke-width: 1; stroke-dasharray: none; stroke-linecap: butt; stroke-dashoffset: 0; stroke-linejoin: miter; stroke-miterlimit: 4; fill: rgb(0,16,118); fill-rule: nonzero; opacity: 1;" transform=" translate(-1200.11, -1042.5)" d="M 1040 1612 c -55 -21 -81 -25 -175 -26 c -105 0 -124 4 -208 39 c -23 10 -43 -38 -69 -165 c -52 -248 14 -511 178 -720 c 35 -44 61 -80 57 -80 c -5 0 -25 5 -45 10 c -51 15 -78 52 -78 109 l -1 46 l -29 -34 c -64 -75 -89 -171 -52 -204 c 40 -36 157 -43 265 -16 c 36 10 41 8 105 -39 c 37 -27 82 -57 99 -67 l 32 -19 l 88 59 c 111 75 265 230 318 319 c 26 44 77 104 141 167 c 135 132 187 228 154 288 c -12 23 -80 51 -123 51 l -33 0 l -12 81 c -17 115 -52 222 -72 215 c -8 -2 -35 -13 -60 -23 c -33 -13 -72 -17 -150 -17 c -88 0 -117 4 -181 27 c -41 15 -77 26 -80 26 c -2 -1 -33 -13 -69 -27 z m 131 -32 c 120 -42 257 -47 353 -14 c 21 8 42 14 46 14 c 12 0 38 -107 50 -202 c 18 -146 -16 -355 -62 -379 c -19 -10 -20 -9 -14 7 c 56 143 53 417 -5 526 c -9 17 -12 17 -52 0 c -65 -26 -244 -23 -317 6 l -56 22 l -54 -21 c -82 -32 -217 -37 -298 -11 l -63 20 l -9 -24 c -46 -120 -57 -311 -26 -439 c 31 -128 110 -268 214 -377 c 31 -33 33 -38 16 -38 c -34 0 -142 137 -202 255 c -62 124 -77 194 -77 360 c 0 116 4 166 19 218 c 10 37 22 69 26 72 c 5 3 20 1 34 -5 c 95 -36 263 -31 366 10 c 25 10 47 18 50 19 c 3 1 31 -8 61 -19 z m 174 -83 c 58 1 106 6 134 17 c 24 9 46 15 48 13 c 2 -2 13 -41 24 -87 c 42 -165 10 -431 -58 -495 c -15 -13 -28 -23 -30 -22 c -1 2 5 23 14 47 c 103 295 -176 584 -475 492 c -137 -43 -232 -150 -262 -296 c -38 -186 78 -377 266 -436 c 33 -10 52 -20 44 -23 c -63 -22 -94 -28 -115 -23 c -29 7 -126 120 -178 207 c -87 147 -120 356 -82 526 c 23 105 29 115 60 103 c 13 -5 54 -14 89 -21 c 74 -12 183 0 249 29 c 39 17 42 17 111 -7 c 55 -18 91 -24 161 -24 z m -140 -42 c 187 -49 308 -232 275 -417 c -23 -125 -53 -156 -252 -255 c -100 -50 -116 -55 -162 -51 c -112 9 -234 97 -284 206 c -37 82 -43 204 -12 285 c 42 112 142 202 259 233 c 63 17 106 17 176 -1 z m 492 -236 c -2 -35 -11 -68 -26 -93 c -13 -20 -25 -35 -27 -33 c -2 2 0 28 6 57 c 5 29 10 80 10 114 l 0 61 l 21 -25 c 16 -20 19 -36 16 -81 z m -229 -416 c -47 -68 -172 -191 -248 -244 c -106 -75 -98 -74 -173 -23 c -63 41 -82 64 -56 64 c 6 0 37 -16 69 -36 l 58 -36 l 79 53 c 73 49 157 127 246 227 c 50 57 66 53 25 -5 z m -77 -32 c -23 -43 -245 -221 -275 -221 c -19 0 -88 52 -79 59 c 4 4 53 26 108 49 c 55 23 134 62 175 86 c 41 24 76 45 78 45 c 1 1 -2 -7 -7 -18 z" stroke-linecap="round"/>
</g>
		<g transform="matrix(0.13 0 0 -0.13 -5.27 -5.89)">
<path style="stroke: none; stroke-width: 1; stroke-dasharray: none; stroke-linecap: butt; stroke-dashoffset: 0; stroke-linejoin: miter; stroke-miterlimit: 4; fill: rgb(172,46,23); fill-rule: nonzero; opacity: 1;" transform=" translate(-1085.46, -1169.61)" d="M 1035 1366 c -40 -18 -90 -72 -109 -118 c -56 -133 49 -288 194 -288 c 68 0 157 47 134 70 c -9 9 -22 6 -52 -9 c -75 -38 -152 -23 -210 43 c -38 43 -46 72 -39 132 c 5 50 43 106 87 129 c 42 22 128 19 168 -5 c 18 -11 37 -18 43 -15 c 20 13 7 34 -34 54 c -50 24 -136 27 -182 7 z" stroke-linecap="round"/>
</g>
		<g transform="matrix(0.13 0 0 -0.13 15.16 -17.27)">
<path style="stroke: none; stroke-width: 1; stroke-dasharray: none; stroke-linecap: butt; stroke-dashoffset: 0; stroke-linejoin: miter; stroke-miterlimit: 4; fill: rgb(172,46,23); fill-rule: nonzero; opacity: 1;" transform=" translate(-1238.71, -1255)" d="M 1210 1255 c 0 -20 5 -25 24 -25 c 14 0 27 4 30 9 c 11 18 -6 41 -30 41 c -19 0 -24 -5 -24 -25 z" stroke-linecap="round"/>
</g>
		<g transform="matrix(0.13 0 0 -0.13 -1.8 -5.33)">
<path style="stroke: none; stroke-width: 1; stroke-dasharray: none; stroke-linecap: butt; stroke-dashoffset: 0; stroke-linejoin: miter; stroke-miterlimit: 4; fill: rgb(172,46,23); fill-rule: nonzero; opacity: 1;" transform=" translate(-1111.52, -1165.44)" d="M 1055 1257 c -15 -12 -16 -15 -4 -23 c 8 -5 28 -9 44 -9 c 23 0 30 -4 30 -20 c 0 -13 -8 -21 -22 -23 c -29 -4 -30 -32 -3 -32 c 24 0 37 -27 22 -42 c -8 -8 -18 -8 -36 0 c -20 9 -27 8 -37 -5 c -30 -35 64 -59 109 -27 c 24 16 30 62 11 81 c -8 8 -8 17 0 31 c 15 29 14 39 -9 62 c -23 23 -77 27 -105 7 z" stroke-linecap="round"/>
</g>
		<g transform="matrix(0.13 0 0 -0.13 15.6 -1.27)">
<path style="stroke: none; stroke-width: 1; stroke-dasharray: none; stroke-linecap: butt; stroke-dashoffset: 0; stroke-linejoin: miter; stroke-miterlimit: 4; fill: rgb(172,46,23); fill-rule: nonzero; opacity: 1;" transform=" translate(-1242, -1135)" d="M 1204 1135 l 0 -75 l 38 0 c 31 0 38 4 38 20 c 0 11 -4 20 -10 20 c -5 0 -10 25 -10 55 c 0 53 -1 55 -28 55 l -28 0 l 0 -75 z" stroke-linecap="round"/>
</g>
		<g transform="matrix(0.13 0 0 -0.13 -23.75 30.06)">
<path style="stroke: none; stroke-width: 1; stroke-dasharray: none; stroke-linecap: butt; stroke-dashoffset: 0; stroke-linejoin: miter; stroke-miterlimit: 4; fill: rgb(0,0,0); fill-rule: nonzero; opacity: 1;" transform=" translate(-946.85, -900)" d="M 922 938 c -31 -31 -4 -88 42 -88 c 25 0 19 18 -6 22 c -33 4 -31 48 2 65 l 25 13 l -25 0 c -15 0 -31 -5 -38 -12 z" stroke-linecap="round"/>
</g>
		<g transform="matrix(0.13 0 0 -0.13 8.69 30.55)">
<path style="stroke: none; stroke-width: 1; stroke-dasharray: none; stroke-linecap: butt; stroke-dashoffset: 0; stroke-linejoin: miter; stroke-miterlimit: 4; fill: rgb(0,0,0); fill-rule: nonzero; opacity: 1;" transform=" translate(-1190.16, -896.34)" d="M 1178 928 c -7 -20 6 -71 18 -75 c 10 -3 10 6 5 80 c -1 12 -19 8 -23 -5 z" stroke-linecap="round"/>
</g>
		<g transform="matrix(0.13 0 0 -0.13 -12.06 31.89)">
<path style="stroke: none; stroke-width: 1; stroke-dasharray: none; stroke-linecap: butt; stroke-dashoffset: 0; stroke-linejoin: miter; stroke-miterlimit: 4; fill: rgb(0,0,0); fill-rule: nonzero; opacity: 1;" transform=" translate(-1034.58, -886.29)" d="M 1003 904 c -3 -9 -2 -24 4 -33 c 11 -18 53 -28 53 -12 c 0 6 -6 8 -14 5 c -8 -3 -17 -1 -21 5 c -4 7 4 11 20 11 c 21 0 26 4 21 16 c -3 9 -6 18 -6 20 c 0 13 -52 1 -57 -12 z m 47 -4 c 0 -5 -7 -10 -15 -10 c -8 0 -15 5 -15 10 c 0 6 7 10 15 10 c 8 0 15 -4 15 -10 z" stroke-linecap="round"/>
</g>
		<g transform="matrix(0.13 0 0 -0.13 -1.33 32.06)">
<path style="stroke: none; stroke-width: 1; stroke-dasharray: none; stroke-linecap: butt; stroke-dashoffset: 0; stroke-linejoin: miter; stroke-miterlimit: 4; fill: rgb(0,0,0); fill-rule: nonzero; opacity: 1;" transform=" translate(-1115, -885)" d="M 1080 885 c 0 -41 17 -47 22 -8 c 4 39 28 42 28 4 c 0 -17 5 -31 10 -31 c 6 0 10 16 10 35 c 0 33 -2 35 -35 35 c -33 0 -35 -2 -35 -35 z" stroke-linecap="round"/>
</g>
		<g transform="matrix(0.13 0 0 -0.13 18.04 32.07)">
<path style="stroke: none; stroke-width: 1; stroke-dasharray: none; stroke-linecap: butt; stroke-dashoffset: 0; stroke-linejoin: miter; stroke-miterlimit: 4; fill: rgb(0,0,0); fill-rule: nonzero; opacity: 1;" transform=" translate(-1260.27, -884.95)" d="M 1234 906 c -15 -39 22 -74 50 -46 c 8 8 7 10 -5 5 c -10 -4 -20 -2 -24 4 c -3 7 2 11 14 11 c 14 0 21 6 21 20 c 0 15 -7 20 -25 20 c -14 0 -28 -6 -31 -14 z m 36 -6 c 0 -5 -4 -10 -10 -10 c -5 0 -10 5 -10 10 c 0 6 5 10 10 10 c 6 0 10 -4 10 -10 z" stroke-linecap="round"/>
</g>
		<g transform="matrix(0.13 0 0 -0.13 27.15 32.06)">
<path style="stroke: none; stroke-width: 1; stroke-dasharray: none; stroke-linecap: butt; stroke-dashoffset: 0; stroke-linejoin: miter; stroke-miterlimit: 4; fill: rgb(0,0,0); fill-rule: nonzero; opacity: 1;" transform=" translate(-1328.64, -885)" d="M 1310 885 c 0 -19 5 -35 10 -35 c 6 0 10 10 10 23 c 0 13 5 28 12 35 c 9 9 7 12 -10 12 c -18 0 -22 -6 -22 -35 z" stroke-linecap="round"/>
</g>
		<g transform="matrix(0.13 0 0 -0.13 110.68 -62.87)">
<path style="stroke: none; stroke-width: 1; stroke-dasharray: none; stroke-linecap: butt; stroke-dashoffset: 0; stroke-linejoin: miter; stroke-miterlimit: 4; fill: rgb(5,17,122); fill-rule: nonzero; opacity: 1;" transform=" translate(-1955.1, -1597)" d="M 1940 1606 c 0 -7 7 -19 15 -26 c 16 -13 20 -3 9 24 c -8 20 -24 21 -24 2 z" stroke-linecap="round"/>
</g>
		<g transform="matrix(0.13 0 0 -0.13 -89.93 53.39)">
<path style="stroke: none; stroke-width: 1; stroke-dasharray: none; stroke-linecap: butt; stroke-dashoffset: 0; stroke-linejoin: miter; stroke-miterlimit: 4; fill: rgb(0,16,118); fill-rule: nonzero; opacity: 1;" transform=" translate(-450.5, -725)" d="M 256 988 c 18 -115 74 -254 147 -363 c 37 -56 180 -205 195 -205 c 4 0 17 18 30 41 l 23 40 l -69 69 c -38 37 -91 102 -117 144 c -47 76 -105 220 -105 263 c 0 45 -10 53 -61 53 l -49 0 l 6 -42 z" stroke-linecap="round"/>
</g>
		<g transform="matrix(0.13 0 0 -0.13 89.93 53.39)">
<path style="stroke: none; stroke-width: 1; stroke-dasharray: none; stroke-linecap: butt; stroke-dashoffset: 0; stroke-linejoin: miter; stroke-miterlimit: 4; fill: rgb(0,16,118); fill-rule: nonzero; opacity: 1;" transform=" translate(-1799.5, -725)" d="M 1896 1014 c -3 -9 -6 -25 -6 -37 c 0 -43 -58 -187 -105 -263 c -26 -42 -79 -107 -117 -144 l -69 -69 l 23 -40 c 13 -23 26 -41 30 -41 c 15 0 158 149 195 205 c 73 109 129 248 147 363 l 6 42 l -49 0 c -35 0 -51 -4 -55 -16 z" stroke-linecap="round"/>
</g>
		<g transform="matrix(0.13 0 0 -0.13 133.67 15.96)">
<path style="stroke: none; stroke-width: 1; stroke-dasharray: none; stroke-linecap: butt; stroke-dashoffset: 0; stroke-linejoin: miter; stroke-miterlimit: 4; fill: rgb(5,17,122); fill-rule: nonzero; opacity: 1;" transform=" translate(-2127.54, -1005.78)" d="M 2100 1011 c 0 -22 37 -38 52 -23 c 6 6 3 15 -7 26 c -22 22 -45 20 -45 -3 z" stroke-linecap="round"/>
</g>
		<g transform="matrix(0.13 0 0 -0.13 0 106.39)">
<path style="stroke: none; stroke-width: 1; stroke-dasharray: none; stroke-linecap: butt; stroke-dashoffset: 0; stroke-linejoin: miter; stroke-miterlimit: 4; fill: rgb(0,16,118); fill-rule: nonzero; opacity: 1;" transform=" translate(-1125, -327.5)" d="M 801 366 c -12 -18 -21 -38 -21 -43 c 0 -5 42 -23 93 -39 c 86 -27 103 -29 252 -29 c 149 0 166 2 253 29 c 50 16 92 34 92 39 c 0 13 -40 77 -48 77 c -4 0 -36 -10 -72 -22 c -56 -19 -87 -22 -225 -22 c -138 0 -169 3 -225 22 c -36 12 -68 22 -72 22 c -3 0 -16 -15 -27 -34 z" stroke-linecap="round"/>
</g>
		<g transform="matrix(0.13 0 0 -0.13 90.57 -99.32)">
<path style="stroke: none; stroke-width: 1; stroke-dasharray: none; stroke-linecap: butt; stroke-dashoffset: 0; stroke-linejoin: miter; stroke-miterlimit: 4; fill: rgb(5,17,122); fill-rule: nonzero; opacity: 1;" transform=" translate(-1804.24, -1870.34)" d="M 1793 1893 c -16 -6 -17 -39 -2 -49 c 16 -9 43 21 36 40 c -7 16 -13 18 -34 9 z" stroke-linecap="round"/>
</g>
		<g transform="matrix(0.12 0 0 -0.12 109.29 -78.48)">
<path style="stroke: none; stroke-width: 1; stroke-dasharray: none; stroke-linecap: butt; stroke-dashoffset: 0; stroke-linejoin: miter; stroke-miterlimit: 4; fill: rgb(5,17,122); fill-rule: nonzero; opacity: 1;" transform=" translate(-1946.49, -1712.14)" d="M 1933 1733 c -17 -6 -16 -40 1 -46 c 21 -8 49 26 34 41 c -13 13 -16 13 -35 5 z" stroke-linecap="round"/>
</g>
		<g transform="matrix(0.13 0 0 -0.13 -131.33 -12.32)">
<path style="stroke: none; stroke-width: 1; stroke-dasharray: none; stroke-linecap: butt; stroke-dashoffset: 0; stroke-linejoin: miter; stroke-miterlimit: 4; fill: rgb(0,0,0); fill-rule: nonzero; opacity: 1;" transform=" translate(-140, -1217.88)" d="M 130 1221 c 0 -12 5 -21 10 -21 c 6 0 10 6 10 14 c 0 8 -4 18 -10 21 c -5 3 -10 -3 -10 -14 z" stroke-linecap="round"/>
</g>
		<g transform="matrix(0.13 0 0 -0.13 131.7 -12.72)">
<path style="stroke: none; stroke-width: 1; stroke-dasharray: none; stroke-linecap: butt; stroke-dashoffset: 0; stroke-linejoin: miter; stroke-miterlimit: 4; fill: rgb(0,0,0); fill-rule: nonzero; opacity: 1;" transform=" translate(-2112.78, -1220.85)" d="M 2102 1223 c 2 -9 8 -18 15 -20 c 7 -3 9 3 6 16 c -6 25 -26 28 -21 4 z" stroke-linecap="round"/>
</g>
		<g transform="matrix(0.13 0 0 -0.13 -133.95 16.29)">
<path style="stroke: none; stroke-width: 1; stroke-dasharray: none; stroke-linecap: butt; stroke-dashoffset: 0; stroke-linejoin: miter; stroke-miterlimit: 4; fill: rgb(5,17,122); fill-rule: nonzero; opacity: 1;" transform=" translate(-120.36, -1003.25)" d="M 108 1022 c -22 -4 -23 -16 -3 -32 c 18 -15 45 -6 45 14 c 0 16 -18 24 -42 18 z" stroke-linecap="round"/>
</g>
</g>
</g>
		<g transform="matrix(0.48 0 0 0.48 124.4 0.32)">
<g style="">
		<g transform="matrix(1 0 0 1 -141.18 -0.37)">
<path style="stroke: none; stroke-width: 1; stroke-dasharray: none; stroke-linecap: butt; stroke-dashoffset: 0; stroke-linejoin: miter; stroke-miterlimit: 4; fill: rgb(245,134,52); fill-rule: evenodd; opacity: 1;" transform=" translate(-126.32, -227.13)" d="M 227.261 0.00391313 C 235.834 0.00391313 244.294 0.490157 252.619 1.41949 V 23.9237 C 252.627 23.9237 235.721 22.363 227.261 22.363 C 114.105 22.363 22.3762 114.042 22.3762 227.131 C 22.3762 340.217 114.102 431.9 227.261 431.9 C 235.858 431.9 244.329 431.367 252.643 430.335 L 252.619 452.847 C 244.294 453.773 235.834 454.263 227.261 454.263 C 101.746 454.263 0 352.573 0 227.135 C 0 101.686 101.75 0.00391313 227.261 0.00391313 Z" stroke-linecap="round"/>
</g>
		<g transform="matrix(1 0 0 1 -119.04 -0.37)">
<path style="stroke: none; stroke-width: 1; stroke-dasharray: none; stroke-linecap: butt; stroke-dashoffset: 0; stroke-linejoin: miter; stroke-miterlimit: 4; fill: rgb(245,134,52); fill-rule: evenodd; opacity: 1;" transform=" translate(-148.46, -227.13)" d="M 227.262 44.1617 C 235.867 44.1617 244.33 44.7694 252.621 45.9183 V 68.2107 L 252.734 68.234 C 244.436 66.8893 235.937 66.1874 227.262 66.1874 C 138.986 66.1874 67.4197 138.245 67.4197 227.128 C 67.4197 316.011 138.99 388.069 227.262 388.069 C 235.937 388.069 244.44 387.363 252.734 386.025 L 252.621 386.045 V 408.341 C 244.33 409.491 235.867 410.098 227.262 410.098 C 126.152 410.098 44.1843 328.179 44.1843 227.128 C 44.1843 126.073 126.152 44.1617 227.262 44.1617 Z" stroke-linecap="round"/>
</g>
		<g transform="matrix(1 0 0 1 -97.99 -0.37)">
<path style="stroke: none; stroke-width: 1; stroke-dasharray: none; stroke-linecap: butt; stroke-dashoffset: 0; stroke-linejoin: miter; stroke-miterlimit: 4; fill: rgb(245,134,52); fill-rule: evenodd; opacity: 1;" transform=" translate(-169.51, -227.13)" d="M 227.261 86.362 C 235.92 86.362 244.395 87.1467 252.619 88.6447 V 110.031 C 244.45 108.263 235.967 107.325 227.261 107.325 C 161.059 107.325 107.388 160.969 107.388 227.132 C 107.388 293.299 161.059 346.935 227.261 346.935 C 235.967 346.935 244.45 345.997 252.619 344.233 V 365.615 C 244.395 367.117 235.92 367.897 227.261 367.897 C 149.476 367.897 86.4088 304.871 86.4088 227.128 C 86.4088 149.385 149.476 86.362 227.261 86.362 Z" stroke-linecap="round"/>
</g>
		<g transform="matrix(1 0 0 1 97 192.76)">
<path style="stroke: none; stroke-width: 1; stroke-dasharray: none; stroke-linecap: butt; stroke-dashoffset: 0; stroke-linejoin: miter; stroke-miterlimit: 4; fill: rgb(245,134,52); fill-rule: evenodd; opacity: 1;" transform=" translate(-364.5, -420.26)" d="M 359.945 388.157 H 378.551 L 368.914 452.368 H 350.457 L 359.945 388.157 Z" stroke-linecap="round"/>
</g>
		<g transform="matrix(1 0 0 1 103.66 142.39)">
<path style="stroke: none; stroke-width: 1; stroke-dasharray: none; stroke-linecap: butt; stroke-dashoffset: 0; stroke-linejoin: miter; stroke-miterlimit: 4; fill: rgb(245,134,52); fill-rule: evenodd; opacity: 1;" transform=" translate(-371.16, -369.89)" d="M 371.194 381.888 C 367.856 381.888 365.027 380.676 362.692 378.237 C 360.361 375.806 359.2 372.932 359.2 369.579 C 359.2 366.348 360.389 363.603 362.751 361.321 C 365.105 359.043 367.91 357.901 371.194 357.901 C 374.49 357.901 377.311 359.043 379.646 361.321 C 381.957 363.599 383.122 366.348 383.122 369.579 C 383.122 373.081 382.012 376.006 379.756 378.339 C 377.496 380.704 374.757 381.888 371.516 381.888 H 371.194 Z" stroke-linecap="round"/>
</g>
		<g transform="matrix(1 0 0 1 142 193)">
<path style="stroke: none; stroke-width: 1; stroke-dasharray: none; stroke-linecap: butt; stroke-dashoffset: 0; stroke-linejoin: miter; stroke-miterlimit: 4; fill: rgb(245,134,52); fill-rule: evenodd; opacity: 1;" transform=" translate(-409.5, -420.5)" d="M 386 389 H 394.573 V 413.114 H 424.427 V 389 H 433 V 452 H 424.427 V 421.712 H 394.573 V 452 H 386 V 389 Z" stroke-linecap="round"/>
</g>
		<g transform="matrix(1 0 0 1 194.5 204.5)">
<path style="stroke: none; stroke-width: 1; stroke-dasharray: none; stroke-linecap: butt; stroke-dashoffset: 0; stroke-linejoin: miter; stroke-miterlimit: 4; fill: rgb(245,134,52); fill-rule: evenodd; opacity: 1;" transform=" translate(-462, -432)" d="M 444 411 H 452.72 V 434.026 C 452.72 441.13 455.859 444.68 462.174 444.68 C 464.981 444.68 467.206 443.733 468.841 441.844 C 470.462 439.929 471.284 437.327 471.284 434.026 V 411 H 480 V 435.412 C 480 440.537 478.305 444.748 474.92 448.044 C 471.552 451.344 467.226 453 461.981 453 C 456.613 453 452.288 451.344 448.972 448.044 C 445.663 444.748 444 440.437 444 435.111 V 411 Z" stroke-linecap="round"/>
</g>
		<g transform="matrix(1 0 0 1 246 193)">
<path style="stroke: none; stroke-width: 1; stroke-dasharray: none; stroke-linecap: butt; stroke-dashoffset: 0; stroke-linejoin: miter; stroke-miterlimit: 4; fill: rgb(245,134,52); fill-rule: evenodd; opacity: 1;" transform=" translate(-513.5, -420.5)" d="M 492 388 H 500.441 V 419.201 C 504.035 413.106 509.161 410.074 515.846 410.074 C 521.029 410.074 525.493 412.165 529.304 416.385 C 533.095 420.589 535 425.57 535 431.372 C 535 437.146 533.12 442.201 529.403 446.52 C 525.669 450.835 521.309 453 516.343 453 C 513.132 453 510.098 452.127 507.23 450.399 C 504.35 448.67 502.087 446.294 500.441 443.326 V 451.896 H 492 V 388 Z M 526.057 431.35 C 526.057 427.636 524.752 424.451 522.122 421.814 C 519.486 419.149 516.307 417.83 512.589 417.83 C 508.974 417.83 505.852 419.176 503.216 421.86 C 500.565 424.525 499.245 427.698 499.245 431.35 C 499.245 435.176 500.565 438.386 503.216 441.008 C 505.852 443.63 509.104 444.939 512.962 444.939 C 516.539 444.939 519.606 443.615 522.179 440.941 C 524.768 438.266 526.057 435.071 526.057 431.35 Z" stroke-linecap="round"/>
</g>
		<g transform="matrix(1 0 0 1 34.21 168.19)">
<path style="stroke: none; stroke-width: 1; stroke-dasharray: none; stroke-linecap: butt; stroke-dashoffset: 0; stroke-linejoin: miter; stroke-miterlimit: 4; fill: rgb(245,134,52); fill-rule: evenodd; opacity: 1;" transform=" translate(-301.71, -395.69)" d="M 286.272 371.595 H 263.252 C 263.955 361.191 267.795 352.851 274.701 346.545 C 281.642 340.252 289.952 337.087 299.639 337.087 C 310.26 337.087 319.336 340.095 326.791 346.126 C 334.245 352.149 337.965 359.423 337.965 367.909 C 337.965 377.186 333.371 385.554 324.209 393.044 C 330.051 396.726 334.316 400.589 337.027 404.6 C 339.734 408.623 341.073 413.427 341.073 419.03 C 341.073 429.677 337.545 438.229 330.451 444.648 C 323.389 451.067 314.043 454.29 302.378 454.29 C 291.573 454.29 282.591 451.216 275.497 445.067 C 268.4 438.895 264.021 430.343 262.346 419.418 H 285.903 C 288.708 430.249 294.096 435.664 302.044 435.664 C 306.031 435.664 309.382 434.264 312.124 431.437 C 314.866 428.606 316.236 425.108 316.236 420.94 C 316.236 415.827 314.588 411.627 311.276 408.399 C 307.957 405.145 303.716 403.533 298.514 403.533 H 294.315 V 384.362 H 296.814 C 302.233 384.362 306.588 383.025 309.876 380.347 C 313.133 377.7 314.772 374.139 314.772 369.759 C 314.772 365.771 313.498 362.395 310.912 359.56 C 308.326 356.737 305.152 355.337 301.413 355.337 C 292.703 355.337 287.649 360.748 286.28 371.587 L 286.272 371.595 Z" stroke-linecap="round"/>
</g>
</g>
</g>
</g>
</g>
</svg>